<?xml version="1.0" encoding="UTF-8" standalone="no"?>
<svg
   xmlns:dc="http://purl.org/dc/elements/1.1/"
   xmlns:cc="http://creativecommons.org/ns#"
   xmlns:rdf="http://www.w3.org/1999/02/22-rdf-syntax-ns#"
   xmlns:svg="http://www.w3.org/2000/svg"
   xmlns="http://www.w3.org/2000/svg"
   xmlns:sodipodi="http://sodipodi.sourceforge.net/DTD/sodipodi-0.dtd"
   xmlns:inkscape="http://www.inkscape.org/namespaces/inkscape"
   version="1.1"
   x="0px"
   y="0px"
   width="247"
   height="107"
   viewBox="0 0 247 107"
   enable-background="new 0 0 397 180"
   xml:space="preserve"
   id="svg2"
   inkscape:version="0.48.4 r9939"
   sodipodi:docname="Walt_Disney_Imagineering.svg"><title
   id="title3363">Walt Disney Imagineering logo</title><metadata
   id="metadata338"><rdf:RDF><cc:Work
       rdf:about=""><dc:format>image/svg+xml</dc:format><dc:type
         rdf:resource="http://purl.org/dc/dcmitype/StillImage" /><dc:title>Walt Disney Imagineering logo</dc:title></cc:Work></rdf:RDF></metadata><defs
   id="defs336" /><sodipodi:namedview
   pagecolor="#ffffff"
   bordercolor="#666666"
   borderopacity="1"
   objecttolerance="10"
   gridtolerance="10"
   guidetolerance="10"
   inkscape:pageopacity="0"
   inkscape:pageshadow="2"
   inkscape:window-width="1600"
   inkscape:window-height="844"
   id="namedview334"
   showgrid="false"
   inkscape:showpageshadow="false"
   inkscape:zoom="2.1421913"
   inkscape:cx="20.882691"
   inkscape:cy="49.350395"
   inkscape:window-x="-4"
   inkscape:window-y="-4"
   inkscape:window-maximized="1"
   inkscape:current-layer="svg2" />
<g
   id="g4"
   transform="translate(-151.70105,-35.655062)">
	
	
	<path
   d="M 58.41,5.075 C 59.079,4.91 59.534,4.321 59.435,3.639 59.343,2.961 58.749,2.519 58.066,2.545 c -0.834,0.036 -1.527,0.984 -1.22,1.764 0.248,0.634 0.902,0.926 1.564,0.766 z"
   id="path10"
   inkscape:connector-curvature="0"
   style="fill:#141006" />
	<path
   stroke-miterlimit="2"
   d="M 58.41,5.075 C 59.079,4.91 59.534,4.321 59.435,3.639 59.343,2.961 58.749,2.519 58.066,2.545 c -0.834,0.036 -1.527,0.984 -1.22,1.764 0.248,0.634 0.902,0.926 1.564,0.766 z"
   id="path12"
   inkscape:connector-curvature="0"
   style="fill:none;stroke:#231f20;stroke-width:0;stroke-linecap:square;stroke-miterlimit:2" />
	<path
   d="M 79.023,8.199 C 78.97,8.226 73.559,6.652 73.502,6.647 73.457,6.718 71.031,-0.014 71.054,0 c 0.008,0.118 -1.98,6.811 -1.971,6.831 -0.045,0.08 -6.862,1.856 -6.851,1.898 0.023,0.024 7.16,1.859 7.205,1.851 0.02,0.074 2.306,6.911 2.344,6.909 0.031,0.002 1.611,-7.034 1.653,-7.007 -0.042,0.036 5.536,-2.255 5.589,-2.283 z"
   id="path14"
   inkscape:connector-curvature="0"
   style="fill:#141006" />
	<path
   stroke-miterlimit="2"
   d="M 79.023,8.199 C 78.97,8.226 73.559,6.652 73.502,6.647 73.457,6.718 71.031,-0.014 71.054,0 c 0.008,0.118 -1.98,6.811 -1.971,6.831 -0.045,0.08 -6.862,1.856 -6.851,1.898 0.023,0.024 7.16,1.859 7.205,1.851 0.02,0.074 2.306,6.911 2.344,6.909 0.031,0.002 1.611,-7.034 1.653,-7.007 -0.042,0.036 5.536,-2.255 5.589,-2.283 z"
   id="path16"
   inkscape:connector-curvature="0"
   style="fill:none;stroke:#231f20;stroke-width:0;stroke-linecap:square;stroke-miterlimit:2" />
	<path
   d="m 57.521,16.25 c 0.896,-0.214 1.431,-1.126 1.22,-2.023 -0.225,-0.936 -1.242,-1.525 -2.153,-1.218 -0.807,0.277 -1.242,1.057 -1.087,1.895 0.165,0.93 1.098,1.568 2.02,1.346 z"
   id="path18"
   inkscape:connector-curvature="0"
   style="fill:#141006" />
	<path
   stroke-miterlimit="2"
   d="m 57.521,16.25 c 0.896,-0.214 1.431,-1.126 1.22,-2.023 -0.225,-0.936 -1.242,-1.525 -2.153,-1.218 -0.807,0.277 -1.242,1.057 -1.087,1.895 0.165,0.93 1.098,1.568 2.02,1.346 z"
   id="path20"
   inkscape:connector-curvature="0"
   style="fill:none;stroke:#231f20;stroke-width:0;stroke-linecap:square;stroke-miterlimit:2" />
	<path
   d="m 43.943,15.444 c 0.754,-0.228 1.209,-0.919 1.091,-1.696 -0.124,-0.819 -0.871,-1.379 -1.695,-1.286 -0.981,0.113 -1.665,1.338 -1.217,2.219 0.352,0.684 1.085,0.986 1.821,0.763 z"
   id="path22"
   inkscape:connector-curvature="0"
   style="fill:#141006" />
	<path
   stroke-miterlimit="2"
   d="m 43.943,15.444 c 0.754,-0.228 1.209,-0.919 1.091,-1.696 -0.124,-0.819 -0.871,-1.379 -1.695,-1.286 -0.981,0.113 -1.665,1.338 -1.217,2.219 0.352,0.684 1.085,0.986 1.821,0.763 z"
   id="path24"
   inkscape:connector-curvature="0"
   style="fill:none;stroke:#231f20;stroke-width:0;stroke-linecap:square;stroke-miterlimit:2" />
	<path
   d="m 54.069,31.858 c 0.75,-0.259 1.22,-1.102 0.894,-1.826 -0.25,-0.56 -0.756,-0.794 -1.366,-0.766 -0.77,0.036 -1.431,0.601 -1.419,1.372 0.013,0.877 1.062,1.504 1.891,1.22 z"
   id="path26"
   inkscape:connector-curvature="0"
   style="fill:#141006" />
	<path
   stroke-miterlimit="2"
   d="m 54.069,31.858 c 0.75,-0.259 1.22,-1.102 0.894,-1.826 -0.25,-0.56 -0.756,-0.794 -1.366,-0.766 -0.77,0.036 -1.431,0.601 -1.419,1.372 0.013,0.877 1.062,1.504 1.891,1.22 z"
   id="path28"
   inkscape:connector-curvature="0"
   style="fill:none;stroke:#231f20;stroke-width:0;stroke-linecap:square;stroke-miterlimit:2" />
	<path
   d="m 65.269,27.879 c 0.947,-0.072 1.636,-1.12 1.349,-2.024 -0.223,-0.711 -0.824,-1.137 -1.566,-1.091 -0.967,0.055 -1.675,1.175 -1.346,2.087 0.247,0.685 0.837,1.08 1.563,1.028 z"
   id="path30"
   inkscape:connector-curvature="0"
   style="fill:#141006" />
	<path
   stroke-miterlimit="2"
   d="m 65.269,27.879 c 0.947,-0.072 1.636,-1.12 1.349,-2.024 -0.223,-0.711 -0.824,-1.137 -1.566,-1.091 -0.967,0.055 -1.675,1.175 -1.346,2.087 0.247,0.685 0.837,1.08 1.563,1.028 z"
   id="path32"
   inkscape:connector-curvature="0"
   style="fill:none;stroke:#231f20;stroke-width:0;stroke-linecap:square;stroke-miterlimit:2" />
	<path
   d="m 67.706,40.842 c 0.891,-0.18 1.43,-0.99 1.353,-1.892 -0.096,-1.093 -1.333,-1.948 -2.354,-1.54 -0.818,0.329 -1.203,1.155 -1.023,2.015 0.199,0.95 1.081,1.609 2.024,1.417 z"
   id="path34"
   inkscape:connector-curvature="0"
   style="fill:#141006" />
	<path
   stroke-miterlimit="2"
   d="m 67.706,40.842 c 0.891,-0.18 1.43,-0.99 1.353,-1.892 -0.096,-1.093 -1.333,-1.948 -2.354,-1.54 -0.818,0.329 -1.203,1.155 -1.023,2.015 0.199,0.95 1.081,1.609 2.024,1.417 z"
   id="path36"
   inkscape:connector-curvature="0"
   style="fill:none;stroke:#231f20;stroke-width:0;stroke-linecap:square;stroke-miterlimit:2" />
	<path
   d="m 77.227,20.516 c 0.75,-0.375 1.127,-1.059 1.023,-1.891 -0.138,-1.087 -1.295,-1.84 -2.35,-1.54 -0.872,0.245 -1.403,0.984 -1.35,1.892 0.074,1.2 1.597,2.068 2.677,1.539 z"
   id="path38"
   inkscape:connector-curvature="0"
   style="fill:#141006" />
	<path
   stroke-miterlimit="2"
   d="m 77.227,20.516 c 0.75,-0.375 1.127,-1.059 1.023,-1.891 -0.138,-1.087 -1.295,-1.84 -2.35,-1.54 -0.872,0.245 -1.403,0.984 -1.35,1.892 0.074,1.2 1.597,2.068 2.677,1.539 z"
   id="path40"
   inkscape:connector-curvature="0"
   style="fill:none;stroke:#231f20;stroke-width:0;stroke-linecap:square;stroke-miterlimit:2" />
	<path
   d="m 94.489,36.547 c 0.76,-0.152 1.263,-0.792 1.22,-1.568 -0.054,-0.945 -1.13,-1.661 -2.024,-1.344 -0.756,0.265 -1.169,1.045 -0.958,1.822 0.213,0.781 0.97,1.247 1.762,1.09 z"
   id="path42"
   inkscape:connector-curvature="0"
   style="fill:#141006" />
	<path
   stroke-miterlimit="2"
   d="m 94.489,36.547 c 0.76,-0.152 1.263,-0.792 1.22,-1.568 -0.054,-0.945 -1.13,-1.661 -2.024,-1.344 -0.756,0.265 -1.169,1.045 -0.958,1.822 0.213,0.781 0.97,1.247 1.762,1.09 z"
   id="path44"
   inkscape:connector-curvature="0"
   style="fill:none;stroke:#231f20;stroke-width:0;stroke-linecap:square;stroke-miterlimit:2" />
	<path
   d="m 98.743,24.05 c 0.903,-0.186 1.45,-1.131 1.217,-2.023 -0.185,-0.711 -0.705,-1.166 -1.438,-1.221 -1.021,-0.077 -1.915,1.028 -1.67,2.024 0.21,0.855 1.031,1.399 1.891,1.22 z"
   id="path46"
   inkscape:connector-curvature="0"
   style="fill:#141006" />
	<path
   stroke-miterlimit="2"
   d="m 98.743,24.05 c 0.903,-0.186 1.45,-1.131 1.217,-2.023 -0.185,-0.711 -0.705,-1.166 -1.438,-1.221 -1.021,-0.077 -1.915,1.028 -1.67,2.024 0.21,0.855 1.031,1.399 1.891,1.22 z"
   id="path48"
   inkscape:connector-curvature="0"
   style="fill:none;stroke:#231f20;stroke-width:0;stroke-linecap:square;stroke-miterlimit:2" />
	<path
   d="m 71.461,47.634 c 0.854,-0.124 1.459,-0.84 1.412,-1.701 -0.045,-0.93 -0.894,-1.639 -1.818,-1.538 -0.957,0.104 -1.654,1.08 -1.423,2.016 0.207,0.832 0.98,1.341 1.829,1.223 z"
   id="path50"
   inkscape:connector-curvature="0"
   style="fill:#141006" />
	<path
   stroke-miterlimit="2"
   d="m 71.461,47.634 c 0.854,-0.124 1.459,-0.84 1.412,-1.701 -0.045,-0.93 -0.894,-1.639 -1.818,-1.538 -0.957,0.104 -1.654,1.08 -1.423,2.016 0.207,0.832 0.98,1.341 1.829,1.223 z"
   id="path52"
   inkscape:connector-curvature="0"
   style="fill:none;stroke:#231f20;stroke-width:0;stroke-linecap:square;stroke-miterlimit:2" />
	<path
   d="m 111.755,35.962 c 0.891,-0.093 1.607,-0.807 1.541,-1.704 -0.067,-0.961 -1.083,-1.616 -2.019,-1.412 -0.964,0.214 -1.63,1.322 -1.22,2.221 0.315,0.679 0.951,0.974 1.698,0.895 z"
   id="path54"
   inkscape:connector-curvature="0"
   style="fill:#141006" />
	<path
   stroke-miterlimit="2"
   d="m 111.755,35.962 c 0.891,-0.093 1.607,-0.807 1.541,-1.704 -0.067,-0.961 -1.083,-1.616 -2.019,-1.412 -0.964,0.214 -1.63,1.322 -1.22,2.221 0.315,0.679 0.951,0.974 1.698,0.895 z"
   id="path56"
   inkscape:connector-curvature="0"
   style="fill:none;stroke:#231f20;stroke-width:0;stroke-linecap:square;stroke-miterlimit:2" />
	<path
   d="m 109.79,54.718 c 1.156,-0.788 0.85,-4.973 -2.181,-6.668 -1.47,-0.826 -4.065,-0.548 -4.913,0.484 l 1.042,0.843 c 0,0 0.623,-0.562 0.674,-0.439 -0.202,1.088 -0.339,1.361 -0.612,1.974 2.73,0.118 4.534,1.197 5.99,3.806 z"
   id="path58"
   inkscape:connector-curvature="0"
   style="fill:#ffffff" />
	<path
   stroke-miterlimit="2"
   d="m 109.79,54.718 c 1.156,-0.788 0.85,-4.973 -2.181,-6.668 -1.47,-0.826 -4.065,-0.548 -4.913,0.484 l 1.042,0.843 c 0,0 0.623,-0.562 0.674,-0.439 -0.202,1.088 -0.339,1.361 -0.612,1.974 2.73,0.118 4.534,1.197 5.99,3.806 z"
   id="path60"
   inkscape:connector-curvature="0"
   style="fill:none;stroke:#ffffff;stroke-width:0;stroke-linecap:square;stroke-miterlimit:2" />
	<path
   d="m 79.594,72.667 c 0.41,-0.458 0.146,-1.487 -0.52,-2.949 -0.565,-1.234 -1.546,-1.805 -2.044,-1.529 -0.506,0.141 -0.135,1.833 0.596,3.014 0.703,1.138 1.442,1.686 1.968,1.464 z"
   id="path62"
   inkscape:connector-curvature="0"
   style="fill:#ffffff" />
	<path
   stroke-miterlimit="2"
   d="m 79.594,72.667 c 0.41,-0.458 0.146,-1.487 -0.52,-2.949 -0.565,-1.234 -1.546,-1.805 -2.044,-1.529 -0.506,0.141 -0.135,1.833 0.596,3.014 0.703,1.138 1.442,1.686 1.968,1.464 z"
   id="path64"
   inkscape:connector-curvature="0"
   style="fill:none;stroke:#ffffff;stroke-width:0;stroke-linecap:square;stroke-miterlimit:2" />
	<path
   d="m 35.854,27.571 c 0.002,-0.035 -0.512,-1.561 -1.077,-2.643 -0.54,-1.033 -1.127,-1.681 -1.274,-1.788 0,0.033 -1.933,0.126 -1.883,0.132 0.051,-0.006 2.227,2.646 2.184,2.579 -0.037,0 -0.266,2.975 -0.266,2.939 l 2.316,-1.219 z"
   id="path66"
   inkscape:connector-curvature="0"
   style="fill:#ffffff" />
	<path
   stroke-miterlimit="2"
   d="m 35.854,27.571 c 0.002,-0.035 -0.512,-1.561 -1.077,-2.643 -0.54,-1.033 -1.127,-1.681 -1.274,-1.788 0,0.033 -1.933,0.126 -1.883,0.132 0.051,-0.006 2.227,2.646 2.184,2.579 -0.037,0 -0.266,2.975 -0.266,2.939 l 2.316,-1.219 z"
   id="path68"
   inkscape:connector-curvature="0"
   style="fill:none;stroke:#ffffff;stroke-width:0;stroke-linecap:square;stroke-miterlimit:2" />
	<path
   d="m 30.299,39.375 c -0.068,-0.006 2.754,-0.534 2.777,-0.534 0.045,0 -1.853,-2.446 -1.853,-2.446 0.034,0 0.495,-3.115 0.495,-3.137 0,0.059 -2.575,0.79 -2.592,0.812 0.017,-0.022 -1.437,-0.548 -1.487,-0.521 0.014,0.068 0.05,5.257 0.18,6.056 0.225,0.667 1.751,2.642 1.754,2.642 0.031,0.029 0.691,-2.878 0.726,-2.872 z"
   id="path70"
   inkscape:connector-curvature="0"
   style="fill:#ffffff" />
	<path
   stroke-miterlimit="2"
   d="m 30.299,39.375 c -0.068,-0.006 2.754,-0.534 2.777,-0.534 0.045,0 -1.853,-2.446 -1.853,-2.446 0.034,0 0.495,-3.115 0.495,-3.137 0,0.059 -2.575,0.79 -2.592,0.812 0.017,-0.022 -1.437,-0.548 -1.487,-0.521 0.014,0.068 0.05,5.257 0.18,6.056 0.225,0.667 1.751,2.642 1.754,2.642 0.031,0.029 0.691,-2.878 0.726,-2.872 z"
   id="path72"
   inkscape:connector-curvature="0"
   style="fill:none;stroke:#ffffff;stroke-width:0;stroke-linecap:square;stroke-miterlimit:2" />
	<path
   d="m 35.751,63.162 c -0.011,-0.017 2.713,-1.385 2.727,-1.377 -0.014,-0.008 -2.5,-2.047 -2.527,-2.058 0.059,-0.021 -0.725,-2.874 -0.733,-2.851 -0.028,-0.053 -2.373,2.289 -2.409,2.266 0,0.022 -1.88,-0.703 -1.869,-0.68 0.053,0.045 1.807,5.805 2.333,6.718 0,0.065 2.359,0.984 2.413,0.989 -0.033,0.001 0.119,-3.023 0.065,-3.007 z"
   id="path74"
   inkscape:connector-curvature="0"
   style="fill:#ffffff" />
	<path
   stroke-miterlimit="2"
   d="m 35.751,63.162 c -0.011,-0.017 2.713,-1.385 2.727,-1.377 -0.014,-0.008 -2.5,-2.047 -2.527,-2.058 0.059,-0.021 -0.725,-2.874 -0.733,-2.851 -0.028,-0.053 -2.373,2.289 -2.409,2.266 0,0.022 -1.88,-0.703 -1.869,-0.68 0.053,0.045 1.807,5.805 2.333,6.718 0,0.065 2.359,0.984 2.413,0.989 -0.033,0.001 0.119,-3.023 0.065,-3.007 z"
   id="path76"
   inkscape:connector-curvature="0"
   style="fill:none;stroke:#ffffff;stroke-width:0;stroke-linecap:square;stroke-miterlimit:2" />
	<path
   d="m 68.664,77.685 c -0.498,-1.526 -5.125,-7.955 -7.106,-6.463 -1.481,1.113 0.677,5.563 2.26,7.213 -0.279,-1.021 -0.323,-1.965 0.216,-2.505 0.852,-1.211 3.551,0.141 4.63,1.755 z"
   id="path78"
   inkscape:connector-curvature="0"
   style="fill:#ffffff" />
	<path
   stroke-miterlimit="2"
   d="m 68.664,77.685 c -0.498,-1.526 -5.125,-7.955 -7.106,-6.463 -1.481,1.113 0.677,5.563 2.26,7.213 -0.279,-1.021 -0.323,-1.965 0.216,-2.505 0.852,-1.211 3.551,0.141 4.63,1.755 z"
   id="path80"
   inkscape:connector-curvature="0"
   style="fill:none;stroke:#ffffff;stroke-width:0;stroke-linecap:square;stroke-miterlimit:2" />
	<path
   d="m 70.91,75.166 c 0.584,-2.334 2.926,-0.954 3.918,1.25 0.229,-0.132 -3.061,-6.193 -4.863,-5.518 -0.784,0.293 0.094,3.019 0.945,4.268 z"
   id="path82"
   inkscape:connector-curvature="0"
   style="fill:#ffffff" />
	<path
   stroke-miterlimit="2"
   d="m 70.91,75.166 c 0.584,-2.334 2.926,-0.954 3.918,1.25 0.229,-0.132 -3.061,-6.193 -4.863,-5.518 -0.784,0.293 0.094,3.019 0.945,4.268 z"
   id="path84"
   inkscape:connector-curvature="0"
   style="fill:none;stroke:#ffffff;stroke-width:0;stroke-linecap:square;stroke-miterlimit:2" />
	<path
   d="m 51.345,104.03 c -0.2,-0.265 -0.332,-1.783 0.537,-2.654 -2.578,-0.798 -5.088,-2.383 -7.205,-4.761 0.332,3.043 -1.324,7.007 -3.241,8.197 0.995,0 8.388,-0.152 9.909,-0.782 z"
   id="path86"
   inkscape:connector-curvature="0"
   style="fill:#ffffff" />
	<path
   stroke-miterlimit="2"
   d="m 51.345,104.03 c -0.2,-0.265 -0.332,-1.783 0.537,-2.654 -2.578,-0.798 -5.088,-2.383 -7.205,-4.761 0.332,3.043 -1.324,7.007 -3.241,8.197 0.995,0 8.388,-0.152 9.909,-0.782 z"
   id="path88"
   inkscape:connector-curvature="0"
   style="fill:none;stroke:#ffffff;stroke-width:0;stroke-linecap:square;stroke-miterlimit:2" />
	<path
   d="m 92.001,111.302 c 0.093,-0.489 -0.199,-1.256 -0.433,-1.65 -0.256,-0.101 -1.237,0.006 -1.698,0.372 0.729,0.128 1.8,0.95 2.131,1.278"
   id="path90"
   inkscape:connector-curvature="0"
   style="fill:#ee3124" />
	<path
   d="m 91.87,112.624 c 0.149,-0.52 -1.886,-1.948 -2.614,-1.948 -0.138,0.143 -0.141,0.846 0,0.992 1.124,1.057 2.501,1.346 2.614,0.956 z"
   id="path92"
   inkscape:connector-curvature="0"
   style="fill:#ffd200" />
	<path
   stroke-miterlimit="3.864"
   d="m 91.87,112.624 c 0.149,-0.52 -1.886,-1.948 -2.614,-1.948 -0.138,0.143 -0.141,0.846 0,0.992 1.124,1.057 2.501,1.346 2.614,0.956 z"
   id="path94"
   inkscape:connector-curvature="0"
   style="fill:none;stroke:#ffd200;stroke-width:0.3425;stroke-miterlimit:3.86400008" />
	<path
   d="m 30.478,155.082 c 2.581,-0.903 9.255,-2.707 15.951,-1.897 -4.25,-1.597 -12.111,-0.641 -16.212,0.764 -6.636,2.272 -11.874,8.119 -16.771,7.736 4.371,1.692 8.301,-3.547 17.032,-6.603 z"
   id="path96"
   inkscape:connector-curvature="0"
   style="fill:#141006" />
	<path
   d="m 36.924,160.988 c 2.708,0.314 4.087,1.186 6.458,1.249 -4.22,-2.229 -8.917,-2.595 -12.926,-0.681 1.821,-0.568 4.537,-0.787 6.468,-0.568 z"
   id="path98"
   inkscape:connector-curvature="0"
   style="fill:#141006" />
	<path
   d="m 84.358,163.937 c 3.877,-3.017 8.144,-5.127 13.075,-5.552 -5.271,-1.13 -9.856,1.569 -13.075,5.552 z"
   id="path100"
   inkscape:connector-curvature="0"
   style="fill:#141006" />
	<path
   d="m 104.199,77.291 c -1.818,0.624 -3.14,2.98 -3.201,3.907 l 3.589,-3.584 c 0,0 0.242,0.171 -0.388,-0.323 z"
   id="path102"
   inkscape:connector-curvature="0"
   style="fill:#ee3124" />
	<path
   stroke-miterlimit="2"
   d="m 104.199,77.291 c -1.818,0.624 -3.14,2.98 -3.201,3.907 l 3.589,-3.584 c 0,0 0.242,0.171 -0.388,-0.323 z"
   id="path104"
   inkscape:connector-curvature="0"
   style="fill:none;stroke:#ea2d30;stroke-width:0;stroke-linecap:square;stroke-miterlimit:2" />
	<path
   d="m 110.192,60.818 c -0.329,-0.427 -0.264,-0.956 -0.264,-0.953 0.002,0 0,-0.087 -0.284,0.686 0.382,0.267 0.514,0.236 0.548,0.267 z"
   id="path106"
   inkscape:connector-curvature="0"
   style="fill:#ffffff" />
	<path
   stroke-miterlimit="2"
   d="m 110.192,60.818 c -0.329,-0.427 -0.264,-0.956 -0.264,-0.953 0.002,0 0,-0.087 -0.284,0.686 0.382,0.267 0.514,0.236 0.548,0.267 z"
   id="path108"
   inkscape:connector-curvature="0"
   style="fill:none;stroke:#ffffff;stroke-width:0;stroke-linecap:square;stroke-miterlimit:2" />
	<path
   d="m 110.262,55.488 c 0,0 0.394,2.095 0.228,3.05 0.099,0.332 -0.132,3.534 2.15,3.604 2.713,-0.507 2.808,-4.147 2.547,-5.91 -0.174,-1.184 -0.45,-4.579 -3.699,-4.548 0.49,2.725 -1.226,3.804 -1.226,3.804 z"
   id="path110"
   inkscape:connector-curvature="0"
   style="fill:#ffffff" />
	<path
   stroke-miterlimit="2"
   d="m 110.262,55.488 c 0,0 0.394,2.095 0.228,3.05 0.099,0.332 -0.132,3.534 2.15,3.604 2.713,-0.507 2.808,-4.147 2.547,-5.91 -0.174,-1.184 -0.45,-4.579 -3.699,-4.548 0.49,2.725 -1.226,3.804 -1.226,3.804 z"
   id="path112"
   inkscape:connector-curvature="0"
   style="fill:none;stroke:#ffffff;stroke-width:0;stroke-linecap:square;stroke-miterlimit:2" />
	<path
   stroke-miterlimit="2"
   d="m 105.211,72.596 c 0.216,0.158 0.452,0.334 0.433,0.489"
   id="path114"
   inkscape:connector-curvature="0"
   style="fill:none;stroke:#ffffff;stroke-width:0;stroke-linecap:square;stroke-miterlimit:2" />
	<path
   d="m 105.664,73.243 c 0.025,0.005 -0.331,0 -0.725,-0.329 0,0 -0.464,0.132 -0.626,0.464 -0.751,1.186 0.859,4.132 5.178,4.745 2.917,0.408 6.685,-1.934 5.33,-4.121 -0.975,0.224 -1.355,0.232 -1.883,0.168 0.528,-0.202 1.324,-0.43 1.766,-0.902 5.52,-3.275 1.273,-11.944 2.063,-11.944 2.729,-0.366 4.244,-1.276 5.518,-2.609 1.155,-1.209 1.672,-4.282 -0.059,-5.633 -1.99,-1.552 -4.012,1.863 -5.825,2.788 0.366,3.57 -1.045,7.264 -3.834,7.264 0.245,0.479 0.986,3.464 0.661,3.84 -0.463,-1.714 -1.104,-4.329 -4.298,-5.616 0.099,-0.32 -0.961,0.961 -1.304,0.568 3.345,-3.346 0.667,-8.436 -1.984,-9.39 -1.291,-0.456 -2.418,-0.609 -3.486,0.242 -1.67,1.318 0.02,3.564 0.784,5.392 0.327,0.77 1.142,3.879 -0.7,4.83 1.152,-2.916 -1.622,-7.716 -1.622,-7.716 0,0 -0.309,-0.784 -0.346,-1.181 -2.001,6.241 4.186,17.224 4.61,18.196 0.028,0.078 0.22,0.415 0.782,0.944 z"
   id="path116"
   inkscape:connector-curvature="0"
   style="fill:#ffffff" />
	<path
   stroke-miterlimit="2"
   d="m 105.664,73.243 c 0.025,0.005 -0.331,0 -0.725,-0.329 0,0 -0.464,0.132 -0.626,0.464 -0.751,1.186 0.859,4.132 5.178,4.745 2.917,0.408 6.685,-1.934 5.33,-4.121 -0.975,0.224 -1.355,0.232 -1.883,0.168 0.528,-0.202 1.324,-0.43 1.766,-0.902 5.52,-3.275 1.273,-11.944 2.063,-11.944 2.729,-0.366 4.244,-1.276 5.518,-2.609 1.155,-1.209 1.672,-4.282 -0.059,-5.633 -1.99,-1.552 -4.012,1.863 -5.825,2.788 0.366,3.57 -1.045,7.264 -3.834,7.264 0.245,0.479 0.986,3.464 0.661,3.84 -0.463,-1.714 -1.104,-4.329 -4.298,-5.616 0.099,-0.32 -0.961,0.961 -1.304,0.568 3.345,-3.346 0.667,-8.436 -1.984,-9.39 -1.291,-0.456 -2.418,-0.609 -3.486,0.242 -1.67,1.318 0.02,3.564 0.784,5.392 0.327,0.77 1.142,3.879 -0.7,4.83 1.152,-2.916 -1.622,-7.716 -1.622,-7.716 0,0 -0.309,-0.784 -0.346,-1.181 -2.001,6.241 4.186,17.224 4.61,18.196 0.028,0.078 0.22,0.415 0.782,0.944 z"
   id="path118"
   inkscape:connector-curvature="0"
   style="fill:none;stroke:#ffffff;stroke-width:0;stroke-linecap:square;stroke-miterlimit:2" />
	<path
   d="m 106.735,73.446 c 1.416,1.135 6.348,2.041 7.199,-3.97 -1.532,3.233 -2.544,4.976 -7.199,3.97 z"
   id="path120"
   inkscape:connector-curvature="0"
   style="fill:#141006" />
	<path
   stroke-miterlimit="2"
   d="m 106.735,73.446 c 1.416,1.135 6.348,2.041 7.199,-3.97 -1.532,3.233 -2.544,4.976 -7.199,3.97 z"
   id="path122"
   inkscape:connector-curvature="0"
   style="fill:none;stroke:#231f20;stroke-width:0;stroke-linecap:square;stroke-miterlimit:2" />
	<path
   d="m 11.146,91.335 c 2.072,3.137 0.196,6.471 -0.093,6.69 0.363,0.793 1.512,1.479 1.301,1.788 -1.167,-0.539 -2.108,-1.343 -2.108,-1.343 0,0 -1.344,0.489 -1.254,0.18 0,0 0.866,-0.618 0.733,-0.624 1.254,-0.798 2.364,-5.685 0.06,-6.75 -1.617,-0.745 -2.924,0.672 -4.085,2.55 -0.526,0.579 -1.18,1.833 -2.634,4.093 -0.447,0.655 -0.321,2.474 0.236,2.755 0.838,-0.658 0.528,-0.998 2.283,-1.524 2.516,-0.528 5.444,1.58 6.851,1.754 1.99,0.936 2.4,3.16 1.697,4.627 -0.81,1.687 -3.044,2.4 -4.332,2.22 -1.391,-0.185 -4.04,-1.461 -3.472,-1.976 1.597,0.984 5.02,1.88 6.573,-0.307 1.29,-1.811 -0.057,-3.452 -1.17,-3.801 -2.164,-0.354 -5.445,-2.988 -7.199,-0.528 -2.909,4.071 1.102,8.102 4.565,10.362 2.87,1.872 5.152,3.216 10.361,2.985 3.862,-0.759 4.917,-5.561 1.406,-8.372 -0.301,-0.275 -0.242,-0.334 0.526,-0.174 3.862,2.867 2.515,7.433 0.059,9.131 -0.88,0.531 0,0.877 0.759,0.761 1.206,-0.064 2.688,-0.59 4.11,-2.223 1.627,-1.873 1.804,-4.937 0.801,-7.362 0,0.891 -2.274,2.752 -2.189,2.426 3.253,-3.019 0.424,-7.823 0.886,-9.586 0.39,-1.495 1.366,-1.433 2.718,-1.855 4.332,-1.36 3.104,-7.278 -2.049,-6.457 -3.927,0.627 -3.564,3.724 -5.737,5.271 -2.935,2.091 -6.106,-0.186 -7.652,-2.339 l -2.26,-3.721 C 9.73,87.65 8.212,86.331 6.631,85.471 5.4,84.808 3.033,84.397 1.9,85.856 c -2.055,2.643 0.545,3.826 0.545,3.826 0,0 1.928,1.476 3.112,2.485 1.603,-2.373 3.698,-2.659 5.589,-0.832 z"
   id="path124"
   inkscape:connector-curvature="0"
   style="fill:#ffffff" />
	
	<polygon
   points="83.462,18.743 80.749,19.935 83.417,21.586 83.462,25.155 85.896,22.58 89.047,24.034 88.086,20.658 89.73,18.049 86.208,18.216 84.322,15.667 "
   id="polygon128"
   style="fill:#141006" />
	<polygon
   stroke-miterlimit="3.864"
   points="83.462,18.743 80.749,19.935 83.417,21.586 83.462,25.155 85.896,22.58 89.047,24.034 88.086,20.658 89.73,18.049 86.208,18.216 84.322,15.667 "
   id="polygon130"
   style="fill:none;stroke:#231f20;stroke-width:0.095;stroke-miterlimit:3.86400008" />
	<polygon
   points="49.167,21.636 46.619,24.495 50.145,24.888 51.162,28.022 53.476,24.77 57.428,24.253 54.881,21.745 55.744,17.787 52.258,19.551 49.088,17.796 "
   id="polygon132"
   style="fill:#141006" />
	<polygon
   stroke-miterlimit="3.864"
   points="49.167,21.636 46.619,24.495 50.145,24.888 51.162,28.022 53.476,24.77 57.428,24.253 54.881,21.745 55.744,17.787 52.258,19.551 49.088,17.796 "
   id="polygon134"
   style="fill:none;stroke:#231f20;stroke-width:0.095;stroke-miterlimit:3.86400008" />
	<path
   d="m 40.379,56.028 c 5.24,2.675 8.529,-1.389 8.529,-3.334 -1.717,1.386 -4.391,1.529 -7.073,0.394 -2.581,-1.091 -3.143,-5.948 -2.777,-7.14 -1.752,1.292 -3.143,7.8 1.321,10.08 z"
   id="path136"
   inkscape:connector-curvature="0"
   style="fill:#ffffff" />
	<path
   stroke-miterlimit="2"
   d="m 40.379,56.028 c 5.24,2.675 8.529,-1.389 8.529,-3.334 -1.717,1.386 -4.391,1.529 -7.073,0.394 -2.581,-1.091 -3.143,-5.948 -2.777,-7.14 -1.752,1.292 -3.143,7.8 1.321,10.08 z"
   id="path138"
   inkscape:connector-curvature="0"
   style="fill:none;stroke:#ffffff;stroke-width:0;stroke-linecap:square;stroke-miterlimit:2" />
	<path
   d="m 86.023,112.919 c -0.122,-1.563 -0.667,-2.637 -1.259,-3.635 0,0 -0.825,-1.549 -4.187,-1.232 -3.8,0.36 -3.038,9.544 -0.342,9.862 2.243,0.268 5.684,-3.933 5.788,-4.995 z"
   id="path140"
   inkscape:connector-curvature="0"
   style="fill:#141006" />
	<path
   stroke-miterlimit="2"
   d="m 86.023,112.919 c -0.122,-1.563 -0.667,-2.637 -1.259,-3.635 0,0 -0.825,-1.549 -4.187,-1.232 -3.8,0.36 -3.038,9.544 -0.342,9.862 2.243,0.268 5.684,-3.933 5.788,-4.995 z"
   id="path142"
   inkscape:connector-curvature="0"
   style="fill:none;stroke:#231f20;stroke-width:0;stroke-linecap:square;stroke-miterlimit:2" />
	<path
   d="m 85.424,112.44 c -0.874,-1.877 -4.059,-2.614 -4.993,-1.603 -1.217,1.327 -0.882,4.341 0.411,4.645 0.197,0.073 0.329,0.14 0.382,-0.152 -0.528,-0.36 -0.596,-0.59 -0.739,-1.139 1.063,0.751 3.252,-0.082 4.411,-1.532 0.095,-0.135 0.593,0.34 0.593,0.34 l -0.065,-0.559 z"
   id="path144"
   inkscape:connector-curvature="0"
   style="fill:#141006" />
	<path
   stroke-miterlimit="2"
   d="m 85.424,112.44 c -0.874,-1.877 -4.059,-2.614 -4.993,-1.603 -1.217,1.327 -0.882,4.341 0.411,4.645 0.197,0.073 0.329,0.14 0.382,-0.152 -0.528,-0.36 -0.596,-0.59 -0.739,-1.139 1.063,0.751 3.252,-0.082 4.411,-1.532 0.095,-0.135 0.593,0.34 0.593,0.34 l -0.065,-0.559 z"
   id="path146"
   inkscape:connector-curvature="0"
   style="fill:none;stroke:#231f20;stroke-width:0;stroke-linecap:square;stroke-miterlimit:2" />
	<path
   d="m 85.424,112.44 c -0.874,-1.877 -4.059,-2.614 -4.993,-1.603 -1.217,1.327 -0.882,4.341 0.411,4.645 0.197,0.073 0.329,0.14 0.382,-0.152 -0.528,-0.36 -0.596,-0.59 -0.739,-1.139 1.063,0.751 3.252,-0.082 4.411,-1.532 0.095,-0.135 0.593,0.34 0.593,0.34 l -0.065,-0.559 z"
   id="path148"
   inkscape:connector-curvature="0"
   style="fill:#141006" />
	<path
   stroke-miterlimit="2"
   d="m 85.424,112.44 c -0.874,-1.877 -4.059,-2.614 -4.993,-1.603 -1.217,1.327 -0.882,4.341 0.411,4.645 0.197,0.073 0.329,0.14 0.382,-0.152 -0.528,-0.36 -0.596,-0.59 -0.739,-1.139 1.063,0.751 3.252,-0.082 4.411,-1.532 0.095,-0.135 0.593,0.34 0.593,0.34 l -0.065,-0.559 z"
   id="path150"
   inkscape:connector-curvature="0"
   style="fill:none;stroke:#231f20;stroke-width:0;stroke-linecap:square;stroke-miterlimit:2" />
	<path
   d="m 85.424,112.44 c -0.874,-1.877 -4.059,-2.614 -4.993,-1.603 -1.217,1.327 -0.882,4.341 0.411,4.645 0.197,0.073 0.329,0.14 0.382,-0.152 -0.528,-0.36 -0.596,-0.59 -0.739,-1.139 1.063,0.751 3.252,-0.082 4.411,-1.532 0.095,-0.135 0.593,0.34 0.593,0.34 l -0.065,-0.559 z m -5.189,5.474 c -2.696,-0.318 -3.458,-9.501 0.342,-9.862 3.362,-0.317 4.187,1.232 4.187,1.232 0.592,0.998 1.138,2.072 1.259,3.635 -0.104,1.062 -3.545,5.263 -5.788,4.995 z"
   id="path152"
   inkscape:connector-curvature="0"
   style="fill:#ffd200" />
	
	<path
   d="M 58.241,4.177 C 58.458,4.068 58.655,3.775 58.48,3.607 58.258,3.384 57.951,3.47 57.67,3.613 c -0.144,0.071 -0.11,0.296 0.003,0.406 0.165,0.161 0.365,0.264 0.568,0.158 z"
   id="path156"
   inkscape:connector-curvature="0"
   style="fill:#ffd200" />
	<path
   stroke-miterlimit="3.864"
   d="M 58.241,4.177 C 58.458,4.068 58.655,3.775 58.48,3.607 58.258,3.384 57.951,3.47 57.67,3.613 c -0.144,0.071 -0.11,0.296 0.003,0.406 0.165,0.161 0.365,0.264 0.568,0.158 z"
   id="path158"
   inkscape:connector-curvature="0"
   style="fill:none;stroke:#ffd200;stroke-width:0.3425;stroke-miterlimit:3.86400008" />
	<path
   d="m 72.675,9.652 c 0.034,0 4.099,-1.286 4.13,-1.322 -0.031,0 -4.096,-0.76 -4.096,-0.826 0.028,0 -1.563,-4.859 -1.554,-4.792 -0.06,-0.011 -1.257,4.925 -1.223,4.894 L 64.807,8.73 c 0.034,0.065 5.308,1.121 5.257,1.024 -0.056,0.042 1.687,4.991 1.687,4.991 l 0.924,-5.093 z"
   id="path160"
   inkscape:connector-curvature="0"
   style="fill:#ffd200" />
	
	<path
   d="m 57.189,15.343 c 0.385,-0.033 0.671,-0.349 0.664,-0.731 -0.012,-0.415 -0.394,-0.741 -0.804,-0.697 -0.355,0.041 -0.616,0.297 -0.644,0.656 -0.037,0.429 0.357,0.807 0.784,0.772 z"
   id="path164"
   inkscape:connector-curvature="0"
   style="fill:#ffd200" />
	<path
   stroke-miterlimit="3.864"
   d="m 57.189,15.343 c 0.385,-0.033 0.671,-0.349 0.664,-0.731 -0.012,-0.415 -0.394,-0.741 -0.804,-0.697 -0.355,0.041 -0.616,0.297 -0.644,0.656 -0.037,0.429 0.357,0.807 0.784,0.772 z"
   id="path166"
   inkscape:connector-curvature="0"
   style="fill:none;stroke:#ffd200;stroke-width:0.3425;stroke-miterlimit:3.86400008" />
	<path
   d="m 43.96,14.594 c 0.363,-0.144 0.545,-0.589 0.36,-0.933 -0.169,-0.316 -0.546,-0.428 -0.869,-0.282 -0.332,0.15 -0.492,0.527 -0.352,0.86 0.139,0.335 0.526,0.486 0.861,0.355 z"
   id="path168"
   inkscape:connector-curvature="0"
   style="fill:#ffd200" />
	<path
   stroke-miterlimit="3.864"
   d="m 43.96,14.594 c 0.363,-0.144 0.545,-0.589 0.36,-0.933 -0.169,-0.316 -0.546,-0.428 -0.869,-0.282 -0.332,0.15 -0.492,0.527 -0.352,0.86 0.139,0.335 0.526,0.486 0.861,0.355 z"
   id="path170"
   inkscape:connector-curvature="0"
   style="fill:none;stroke:#ffd200;stroke-width:0.3425;stroke-miterlimit:3.86400008" />
	<path
   d="m 53.951,31.105 c 0.281,-0.166 0.352,-0.54 0.18,-0.821 -0.155,-0.266 -0.495,-0.364 -0.737,-0.266 -0.312,0.131 -0.416,0.524 -0.267,0.817 0.152,0.304 0.532,0.438 0.824,0.27 z"
   id="path172"
   inkscape:connector-curvature="0"
   style="fill:#ffd200" />
	<path
   stroke-miterlimit="3.864"
   d="m 53.951,31.105 c 0.281,-0.166 0.352,-0.54 0.18,-0.821 -0.155,-0.266 -0.495,-0.364 -0.737,-0.266 -0.312,0.131 -0.416,0.524 -0.267,0.817 0.152,0.304 0.532,0.438 0.824,0.27 z"
   id="path174"
   inkscape:connector-curvature="0"
   style="fill:none;stroke:#ffd200;stroke-width:0.3425;stroke-miterlimit:3.86400008" />
	<path
   d="m 64.743,26.874 c 0.396,0.244 0.958,0.016 1.116,-0.423 0.127,-0.351 0.028,-0.708 -0.278,-0.915 -0.379,-0.244 -0.905,-0.069 -1.105,0.333 -0.18,0.365 -0.079,0.796 0.267,1.005 z"
   id="path176"
   inkscape:connector-curvature="0"
   style="fill:#ffd200" />
	<path
   stroke-miterlimit="3.864"
   d="m 64.743,26.874 c 0.396,0.244 0.958,0.016 1.116,-0.423 0.127,-0.351 0.028,-0.708 -0.278,-0.915 -0.379,-0.244 -0.905,-0.069 -1.105,0.333 -0.18,0.365 -0.079,0.796 0.267,1.005 z"
   id="path178"
   inkscape:connector-curvature="0"
   style="fill:none;stroke:#ffd200;stroke-width:0.3425;stroke-miterlimit:3.86400008" />
	<path
   d="m 67.697,39.87 c 0.425,-0.202 0.599,-0.666 0.447,-1.108 -0.157,-0.46 -0.641,-0.726 -1.104,-0.573 -0.467,0.146 -0.714,0.636 -0.579,1.107 0.148,0.509 0.758,0.805 1.236,0.574 z"
   id="path180"
   inkscape:connector-curvature="0"
   style="fill:#ffd200" />
	<path
   stroke-miterlimit="3.864"
   d="m 67.697,39.87 c 0.425,-0.202 0.599,-0.666 0.447,-1.108 -0.157,-0.46 -0.641,-0.726 -1.104,-0.573 -0.467,0.146 -0.714,0.636 -0.579,1.107 0.148,0.509 0.758,0.805 1.236,0.574 z"
   id="path182"
   inkscape:connector-curvature="0"
   style="fill:none;stroke:#ffd200;stroke-width:0.3425;stroke-miterlimit:3.86400008" />
	<path
   d="m 76.696,19.546 c 0.421,-0.125 0.66,-0.481 0.649,-0.918 -0.028,-0.657 -1.11,-1.109 -1.566,-0.634 -0.301,0.311 -0.337,0.725 -0.124,1.103 0.22,0.385 0.622,0.569 1.041,0.449 z"
   id="path184"
   inkscape:connector-curvature="0"
   style="fill:#ffd200" />
	<path
   stroke-miterlimit="3.864"
   d="m 76.696,19.546 c 0.421,-0.125 0.66,-0.481 0.649,-0.918 -0.028,-0.657 -1.11,-1.109 -1.566,-0.634 -0.301,0.311 -0.337,0.725 -0.124,1.103 0.22,0.385 0.622,0.569 1.041,0.449 z"
   id="path186"
   inkscape:connector-curvature="0"
   style="fill:none;stroke:#ffd200;stroke-width:0.3425;stroke-miterlimit:3.86400008" />
	<path
   d="m 94.287,35.965 c 0.434,-0.053 0.695,-0.503 0.61,-0.93 -0.084,-0.434 -0.52,-0.754 -0.945,-0.625 -0.421,0.129 -0.61,0.63 -0.446,1.04 0.134,0.343 0.418,0.557 0.781,0.515 z"
   id="path188"
   inkscape:connector-curvature="0"
   style="fill:#ffd200" />
	<path
   stroke-miterlimit="3.864"
   d="m 94.287,35.965 c 0.434,-0.053 0.695,-0.503 0.61,-0.93 -0.084,-0.434 -0.52,-0.754 -0.945,-0.625 -0.421,0.129 -0.61,0.63 -0.446,1.04 0.134,0.343 0.418,0.557 0.781,0.515 z"
   id="path190"
   inkscape:connector-curvature="0"
   style="fill:none;stroke:#ffd200;stroke-width:0.3425;stroke-miterlimit:3.86400008" />
	<path
   d="m 98.737,23.27 c 0.472,-0.156 0.683,-0.901 0.317,-1.235 -0.236,-0.212 -0.514,-0.231 -0.801,-0.111 -0.335,0.134 -0.541,0.417 -0.495,0.771 0.054,0.44 0.56,0.713 0.979,0.575 z"
   id="path192"
   inkscape:connector-curvature="0"
   style="fill:#ffd200" />
	<path
   stroke-miterlimit="3.864"
   d="m 98.737,23.27 c 0.472,-0.156 0.683,-0.901 0.317,-1.235 -0.236,-0.212 -0.514,-0.231 -0.801,-0.111 -0.335,0.134 -0.541,0.417 -0.495,0.771 0.054,0.44 0.56,0.713 0.979,0.575 z"
   id="path194"
   inkscape:connector-curvature="0"
   style="fill:none;stroke:#ffd200;stroke-width:0.3425;stroke-miterlimit:3.86400008" />
	<path
   d="m 71.456,46.723 c 0.312,-0.168 0.427,-0.488 0.362,-0.843 -0.075,-0.382 -0.368,-0.671 -0.764,-0.657 -0.481,0.017 -0.816,0.601 -0.645,1.054 0.155,0.412 0.65,0.648 1.047,0.446 z"
   id="path196"
   inkscape:connector-curvature="0"
   style="fill:#ffd200" />
	<path
   stroke-miterlimit="3.864"
   d="m 71.456,46.723 c 0.312,-0.168 0.427,-0.488 0.362,-0.843 -0.075,-0.382 -0.368,-0.671 -0.764,-0.657 -0.481,0.017 -0.816,0.601 -0.645,1.054 0.155,0.412 0.65,0.648 1.047,0.446 z"
   id="path198"
   inkscape:connector-curvature="0"
   style="fill:none;stroke:#ffd200;stroke-width:0.3425;stroke-miterlimit:3.86400008" />
	<path
   d="m 111.618,35.181 c 0.396,-0.051 0.622,-0.438 0.582,-0.832 -0.037,-0.416 -0.376,-0.773 -0.787,-0.72 -0.422,0.051 -0.658,0.495 -0.579,0.911 0.075,0.388 0.39,0.697 0.784,0.641 z"
   id="path200"
   inkscape:connector-curvature="0"
   style="fill:#ffd200" />
	<path
   stroke-miterlimit="3.864"
   d="m 111.618,35.181 c 0.396,-0.051 0.622,-0.438 0.582,-0.832 -0.037,-0.416 -0.376,-0.773 -0.787,-0.72 -0.422,0.051 -0.658,0.495 -0.579,0.911 0.075,0.388 0.39,0.697 0.784,0.641 z"
   id="path202"
   inkscape:connector-curvature="0"
   style="fill:none;stroke:#ffd200;stroke-width:0.3425;stroke-miterlimit:3.86400008" />
	<path
   d="m 76.993,112.688 c 0,-0.984 0,-1.321 0.132,-1.917 -5.476,2.44 -8.149,4.104 -11.042,8.135 4.338,-3.727 6.739,-4.526 10.91,-6.218 z"
   id="path204"
   inkscape:connector-curvature="0"
   style="fill:#ffd200" />
	<path
   stroke-miterlimit="3.864"
   d="m 76.993,112.688 c 0,-0.984 0,-1.321 0.132,-1.917 -5.476,2.44 -8.149,4.104 -11.042,8.135 4.338,-3.727 6.739,-4.526 10.91,-6.218 z"
   id="path206"
   inkscape:connector-curvature="0"
   style="fill:none;stroke:#ffd200;stroke-width:0.3425;stroke-miterlimit:3.86400008" />
	<path
   d="m 87.574,113.054 c 1.265,0 1.715,-4.172 -0.667,-5.549 -0.626,-0.366 -1.757,-0.084 -1.92,0.807 0.711,0.56 1.94,4.377 1.94,4.377 0,0 0.281,0.365 0.647,0.365 z"
   id="path208"
   inkscape:connector-curvature="0"
   style="fill:#ffd200" />
	<path
   stroke-miterlimit="3.864"
   d="m 87.574,113.054 c 1.265,0 1.715,-4.172 -0.667,-5.549 -0.626,-0.366 -1.757,-0.084 -1.92,0.807 0.711,0.56 1.94,4.377 1.94,4.377 0,0 0.281,0.365 0.647,0.365 z"
   id="path210"
   inkscape:connector-curvature="0"
   style="fill:none;stroke:#ffd200;stroke-width:0.3425;stroke-miterlimit:3.86400008" />
	<path
   d="m 93.371,115.513 c 1.881,-1.139 0.731,-9.119 -1.914,-8.818 -1.321,0.146 -2.131,1.004 -2.662,1.965 0.129,0.171 0.29,0.869 0.301,0.79 0.627,-0.528 2.816,-1.268 4.07,0.208 -0.05,0.056 0.014,0.298 0.014,0.298 l -0.666,-0.2 c 0,0 0.66,2.846 -0.424,3.613 -0.962,0.677 -2.93,-1.074 -2.93,-1.074 0,0 -0.028,0.534 -0.166,0.529 -0.065,1.096 2.673,3.715 4.377,2.689 z"
   id="path212"
   inkscape:connector-curvature="0"
   style="fill:#ffd200" />
	<path
   stroke-miterlimit="3.864"
   d="m 93.371,115.513 c 1.881,-1.139 0.731,-9.119 -1.914,-8.818 -1.321,0.146 -2.131,1.004 -2.662,1.965 0.129,0.171 0.29,0.869 0.301,0.79 0.627,-0.528 2.816,-1.268 4.07,0.208 -0.05,0.056 0.014,0.298 0.014,0.298 l -0.666,-0.2 c 0,0 0.66,2.846 -0.424,3.613 -0.962,0.677 -2.93,-1.074 -2.93,-1.074 0,0 -0.028,0.534 -0.166,0.529 -0.065,1.096 2.673,3.715 4.377,2.689 z"
   id="path214"
   inkscape:connector-curvature="0"
   style="fill:none;stroke:#ffd200;stroke-width:0.3425;stroke-miterlimit:3.86400008" />
	
	
	
	
	
	
	<path
   d="m 84.659,17.277 -0.568,2.246 -1.875,0.518 c 0,0.032 2.114,1.212 2.114,1.212 l -0.121,2.207 c 0,0.061 1.489,-1.851 1.489,-1.851 l 2.387,1.195 -0.835,-2.267 1.135,-1.73 -2.451,0.356 -1.275,-1.886 z"
   id="path228"
   inkscape:connector-curvature="0"
   style="fill:#ffd200" />
	<path
   stroke-miterlimit="3.864"
   d="m 84.659,17.277 -0.568,2.246 -1.875,0.518 c 0,0.032 2.114,1.212 2.114,1.212 l -0.121,2.207 c 0,0.061 1.489,-1.851 1.489,-1.851 l 2.387,1.195 -0.835,-2.267 1.135,-1.73 -2.451,0.356 -1.275,-1.886 z"
   id="path230"
   inkscape:connector-curvature="0"
   style="fill:none;stroke:#ffd200;stroke-width:0.3425;stroke-miterlimit:3.86400008" />
	<path
   d="m 50.086,19.402 c 0,0 0.044,2.613 0,2.684 -0.042,0.073 -1.848,1.938 -1.848,1.938 l 2.682,-0.029 0.54,2.269 1.489,-2.447 2.834,-0.113 -1.957,-1.638 0.675,-2.722 -2.446,1.251 -1.969,-1.193 z"
   id="path232"
   inkscape:connector-curvature="0"
   style="fill:#ffd200" />
	<path
   stroke-miterlimit="3.864"
   d="m 50.086,19.402 c 0,0 0.044,2.613 0,2.684 -0.042,0.073 -1.848,1.938 -1.848,1.938 l 2.682,-0.029 0.54,2.269 1.489,-2.447 2.834,-0.113 -1.957,-1.638 0.675,-2.722 -2.446,1.251 -1.969,-1.193 z"
   id="path234"
   inkscape:connector-curvature="0"
   style="fill:none;stroke:#ffd200;stroke-width:0.3425;stroke-miterlimit:3.86400008" />
	<path
   d="m 80.58,111.822 c 0.861,-0.264 2.494,-0.562 2.758,-0.5 -0.959,-0.461 -2.376,-0.613 -2.758,0.5 z"
   id="path236"
   inkscape:connector-curvature="0"
   style="fill:#ffd200" />
	<path
   stroke-miterlimit="3.864"
   d="m 80.58,111.822 c 0.861,-0.264 2.494,-0.562 2.758,-0.5 -0.959,-0.461 -2.376,-0.613 -2.758,0.5 z"
   id="path238"
   inkscape:connector-curvature="0"
   style="fill:none;stroke:#ffd200;stroke-width:0.3425;stroke-miterlimit:3.86400008" />
	
	
	
	
	
	
	<path
   d="m 80.431,113.352 c 1.189,0.658 2.381,0.334 4.102,-1.023 0,0.034 -0.121,-0.164 -0.275,-0.237 -2.221,0.225 -2.873,0.535 -3.79,0.804 -0.033,0.012 -0.093,0.424 -0.037,0.456"
   id="path252"
   inkscape:connector-curvature="0"
   style="fill:#ee3124" />
	<path
   d="m 69.074,100.62 c 2.542,-0.272 0.262,-3.18 -0.933,-2.786 -0.722,0.332 0.338,1.028 -0.025,1.158 -0.455,0.163 -0.947,-0.877 -1.422,-1.718 -0.563,-0.993 -1.523,-1.487 -2.218,-1.054 -0.951,0.585 1.922,4.684 4.598,4.4 z"
   id="path254"
   inkscape:connector-curvature="0"
   style="fill:#f79b7a" />
	<path
   stroke-miterlimit="2"
   d="m 69.074,100.62 c 2.542,-0.272 0.262,-3.18 -0.933,-2.786 -0.722,0.332 0.338,1.028 -0.025,1.158 -0.455,0.163 -0.947,-0.877 -1.422,-1.718 -0.563,-0.993 -1.523,-1.487 -2.218,-1.054 -0.951,0.585 1.922,4.684 4.598,4.4 z"
   id="path256"
   inkscape:connector-curvature="0"
   style="fill:none;stroke:#f49982;stroke-width:0;stroke-linecap:square;stroke-miterlimit:2" />
	<path
   d="m 83.912,98.729 c -0.158,-2.42 -1.794,-4.386 -3.644,-4.915 0,0 -0.992,0.799 -1.015,0.85 0.737,0.804 1.223,2.67 0.861,3.801 -0.664,2.049 -1.918,3.406 -3.503,4.2 -0.268,0.197 -0.399,0.101 -0.318,-0.084 0.776,-0.41 3.289,-3.255 2.761,-5.606 -0.067,-0.494 -0.604,-1.866 -0.57,-0.944 -0.944,2.361 -3.922,3.693 -4.321,4.385 -0.961,1.855 -2.547,4.866 -5.51,4.754 -2.454,-0.093 -4.54,-1.712 -6.094,-3.433 -2.887,-0.781 -4.804,-1.11 -7.958,-0.551 -2.073,0.365 -2.485,1.777 -2.19,2.356 0.037,0.542 1.718,0.354 2.316,-0.284 0.464,-0.493 4.836,0.166 9.189,1.852 12.726,4.924 20.394,-0.332 19.996,-6.381 z"
   id="path258"
   inkscape:connector-curvature="0"
   style="fill:#ee3124" />
	
	<path
   d="m 49.897,127.547 c 1.456,-1.877 -6.604,-6.235 -9.87,-13.268 l -8.869,0.9 c 4.613,9.108 16.625,15.084 18.739,12.368 z"
   id="path262"
   inkscape:connector-curvature="0"
   style="fill:#ee3124" />
	<path
   stroke-miterlimit="2"
   d="m 49.897,127.547 c 1.456,-1.877 -6.604,-6.235 -9.87,-13.268 l -8.869,0.9 c 4.613,9.108 16.625,15.084 18.739,12.368 z"
   id="path264"
   inkscape:connector-curvature="0"
   style="fill:none;stroke:#ea2d30;stroke-width:0;stroke-linecap:square;stroke-miterlimit:2" />
	
	
	
	
	<path
   d="m 80.347,148.512 2.766,-3.398 0.434,-5.67 c -4.838,5.999 -13.868,11.987 -21.634,15.231 0,0 -0.428,1.642 -1.175,2.76 0.737,-0.158 2.617,-0.483 3.247,-0.276 0.25,-0.106 0.713,-1.568 2.352,-2.35 1.209,-0.579 2.671,-0.602 3.04,-0.554 0.632,0.053 0.838,0.216 0.809,0.084 0.357,-1.175 1.721,-3.832 3.5,-5.063 2.383,-1.649 4.972,-1.208 6.661,-0.764"
   id="path274"
   inkscape:connector-curvature="0"
   style="fill:#ee3124" />
	<path
   d="m 108.905,82.036 c -0.017,0 -7.661,7.011 -7.661,7.011 0.31,1.853 0.48,4.34 0.512,6.651 0.048,3.486 -2.243,8.068 0.048,8.31 3.662,0.382 7.235,-10.671 7.553,-16.293 0.091,0.039 -0.072,-4.391 -0.452,-5.679 z"
   id="path276"
   inkscape:connector-curvature="0"
   style="fill:#ee3124" />
	<path
   stroke-miterlimit="2"
   d="m 108.905,82.036 c -0.017,0 -7.661,7.011 -7.661,7.011 0.31,1.853 0.48,4.34 0.512,6.651 0.048,3.486 -2.243,8.068 0.048,8.31 3.662,0.382 7.235,-10.671 7.553,-16.293 0.091,0.039 -0.072,-4.391 -0.452,-5.679 z"
   id="path278"
   inkscape:connector-curvature="0"
   style="fill:none;stroke:#ea2d30;stroke-width:0;stroke-linecap:square;stroke-miterlimit:2" />
	
	
	<path
   clip-rule="evenodd"
   d="m 226.066,85.1 c -1.83,1.057 -3.579,1.58 -5.521,0.967 -3.376,-1.53 -3.657,-5.6 -3.07,-8.844 0.922,-5.111 2.135,-11.458 4.909,-14.466 0.93,-1.214 2.144,-0.891 2.271,1.153 0.064,0.573 -0.073,1.352 -0.329,2.682 -0.922,4.245 -2.608,8.18 -2.812,12.729 -0.057,0.821 0.59,1.074 1.26,0.753 2.717,-0.671 3.422,-1.344 6.005,-2.016 1.406,-0.447 1.433,0.613 1.452,1.133 -0.145,2.997 -3.566,5.62 -4.165,5.909"
   id="path284"
   inkscape:connector-curvature="0"
   style="fill:#141006;fill-rule:evenodd" />
	<path
   clip-rule="evenodd"
   d="m 239.991,67.745 c 0.191,-0.641 0.645,-1.254 1.055,-1.769 1.31,-1.684 4.184,-0.149 2.272,0.998 -0.388,0.383 -2.432,0.897 -3.327,0.771 m -1.403,4.981 c -1.991,6.083 -1.921,11.941 -1.572,18.857 0.52,2.454 -1.879,1.793 -2.748,1.281 -4.439,-3.109 -3.285,-10.676 -2.683,-14.769 0.342,-2.293 0.973,-4.498 1.844,-6.595 -3.123,-1.259 -5.675,-2.403 -6.496,-5.42 -0.309,-1.377 0.357,-2.811 1.33,-3.676 0.059,0.553 0.253,1.703 1.021,2.406 2.046,1.793 4.19,2.193 6.696,2.396 1.534,-2.196 3.787,-3.989 6.291,-3.835 0.969,0.051 1.84,0.36 2.554,0.973 1.967,2.063 3.693,9.031 -6.237,8.382 z"
   id="path286"
   inkscape:connector-curvature="0"
   style="fill:#141006;fill-rule:evenodd" />
	<path
   clip-rule="evenodd"
   d="m 211.454,74.907 c -1.176,0.051 -2.351,0.359 -3.579,0.253 0.31,-1.889 1.813,-4.914 2.749,-5.813 0.661,1.799 0.78,3.615 0.83,5.56 m 1.191,10.252 c -0.509,-1.279 -0.554,-3.455 -0.554,-4.936 l -6.523,-0.031 -2.45,6.594 c -0.767,1.788 -2.876,1.341 -3.64,0 -1.151,-2.364 -0.048,-5.372 1.076,-8.079 -0.63,-0.675 -1.057,-2.119 -1.525,-3.039 -1.892,3.218 -3.739,7.031 -7.063,9.685 -4.448,3.631 -10.327,6.696 -16.103,4.14 -2.455,-0.919 -4.603,-3.32 -5.882,-5.619 -2.555,1.226 -6.185,1.991 -8.944,0.613 -6.596,-2.969 -7.097,-10.671 -6.266,-16.226 0.156,-1.023 2.298,-17.19 16.593,-25.497 0.689,-0.248 1.277,-0.456 1.942,-0.102 0.463,0.461 0.206,1.176 -0.256,1.586 -8.739,8.18 -12.83,18.305 -12.986,30.062 0.205,2.862 0.612,5.982 3.426,7.466 1.687,0.922 4.041,0.512 5.521,-0.619 -2.74,-11.97 -1.368,-22.686 9.6,-25.505 3.728,-0.846 6.424,3.005 6.098,8.942 -0.208,6.752 -4.733,12.183 -9.898,16.375 0.349,2.487 4.687,5.034 8.611,3.342 3.079,-1.308 5.479,-3.154 7.93,-7.446 5.421,-9.813 6.237,-24.437 -0.152,-34.102 -1.072,-1.687 -2.511,-3.286 -4.143,-4.649 -0.151,-0.411 -0.093,-1.189 1.29,-0.36 7.313,3.381 10.929,11.149 12.669,18.609 1.226,6.443 0.102,13.089 -1.844,18.817 1.326,0.357 1.739,0.149 2.612,0.203 2.093,-4.396 3.943,-8.326 7.374,-12.11 0.136,-0.123 0.469,-0.531 0.508,-0.702 0.105,-0.453 0.21,-1.248 0.807,-1.4 1.172,-0.518 2.044,0 2.35,0.97 2.019,5.287 3.97,18.145 3.359,23.708 -0.152,1.77 -1.614,2.079 -3.537,-0.69 z m -38.833,-8.143 c -0.378,-5.431 0.457,-12.155 2.704,-17.423 0.676,-1.2 1.597,-2.043 2.522,-0.276 1.614,4.461 0.147,11.756 -5.226,17.699 z"
   id="path288"
   inkscape:connector-curvature="0"
   style="fill:#141006;fill-rule:evenodd" />
	<path
   clip-rule="evenodd"
   d="m 374.526,70.477 c -2.766,0.562 -5.723,0.512 -8.691,0.512 -0.404,0.97 -0.715,2.001 -1.023,3.024 0,0 -0.265,0.244 0.46,0.191 2.284,0.085 3.988,-0.064 6.135,0.45 0.894,-0.128 0.562,1.805 0.411,2.57 -0.86,1.006 -7.314,0.368 -8.232,0.77 -0.703,1.315 -1.123,2.913 -1.687,4.394 -0.141,0.379 0.09,0.272 0.254,0.256 3.221,-0.203 8.522,-1.963 9.564,-1.125 0.662,0.714 1.55,2.165 0.729,2.749 -3.132,2.407 -11.265,7.956 -14.843,1.957 -2.039,-2.861 1.093,-7.719 0.962,-8.644 -0.033,-0.52 -0.246,-1.453 -0.449,-1.97 -0.196,-0.768 1.378,-0.838 2.046,-1.198 0.715,-1.175 1.125,-2.485 1.636,-3.764 -1.534,-0.565 -4.024,-0.961 -3.941,-2.73 0.3,-1.332 13.46,-2.512 15.187,-1.942 1.327,0.616 2.198,1.791 2.815,3.068 0.196,0.869 -0.619,1.33 -1.333,1.432"
   id="path290"
   inkscape:connector-curvature="0"
   style="fill:#141006;fill-rule:evenodd" />
	<path
   clip-rule="evenodd"
   d="m 353.297,85.185 c -0.528,0.467 -2.352,2.288 -4.977,-0.697 -3.278,-4.082 -3.554,-6.443 -6.207,-10.434 0,0 -0.269,-0.183 -0.416,0.618 -0.072,1.096 -0.811,11.298 -0.811,11.298 -0.051,0.75 -0.718,1.633 -1.585,1.585 -0.921,-0.106 -2.046,-0.706 -2.277,-2.482 -0.72,-6.19 1.121,-14.098 2.993,-17.207 0.46,-0.713 1.274,-0.863 1.89,-0.456 3.282,3.371 5.216,8.009 8.382,12.046 0.876,0.95 0.876,0.292 0.921,-0.236 0.05,-5.623 -1.837,-10.429 -2.962,-15.596 -0.236,-0.922 -0.152,-1.633 0.872,-1.327 6.055,3.308 9.136,18.879 4.177,22.888"
   id="path292"
   inkscape:connector-curvature="0"
   style="fill:#141006;fill-rule:evenodd" />
	<path
   clip-rule="evenodd"
   d="m 333.966,69.499 c -5.498,0.768 -10.388,0.419 -15.628,1.951 -1.086,0.255 -1.405,0.894 -0.253,1.276 5.302,0.962 10.705,0.287 14.538,2.075 2.396,1.248 3.127,3.376 2.874,5.675 -0.254,1.386 -0.097,3.433 -2.458,4.838 -2.182,1.727 -11.38,4.352 -16.747,-1.34 -2.042,-1.786 -1.716,-4.298 -0.405,-5.521 2.812,-2.353 8.078,-1.096 8.94,-0.902 2.938,0.703 5.204,1.276 4.253,2.418 -3.208,2.845 -8.82,-0.584 -10.572,-0.584 -0.554,-0.135 -1.734,0.05 -2.009,1.164 -0.297,0.995 0.753,1.827 1.968,1.954 5.847,0.896 10.446,-0.574 13.111,-2.207 0.567,-0.36 1.017,-1.085 0.151,-1.85 -3.808,-3.165 -11.952,-2.238 -14.091,-2.749 -4.856,-0.512 -4.024,-3.289 -3.901,-4.343 1.473,-6.519 16.519,-6.553 21.151,-4.827 2.47,0.604 0.866,2.713 -0.922,2.972"
   id="path294"
   inkscape:connector-curvature="0"
   style="fill:#141006;fill-rule:evenodd" />
	<path
   clip-rule="evenodd"
   d="m 263.742,83.36 c -3.271,-1.295 -9.813,-4.759 -12.54,-8.324 -0.701,-0.896 -0.316,-1.661 0.884,-2.204 2.569,-1.248 8.078,-1.843 12.269,-1.945 l -0.613,12.473 m 32.359,3.475 c -7.207,4.399 -17.99,5.022 -26.328,2.566 -0.225,0.798 -0.051,1.97 -0.511,2.687 -0.191,0.36 -0.581,0.304 -0.958,0.509 -0.832,0.193 -1.374,0.138 -2.138,0.098 -1.761,-0.579 -1.918,-3.466 -2.173,-5.307 -5.575,-2.814 -12.688,-8.85 -13.773,-10.958 -1.79,-2.108 -1.411,-4.537 1.66,-6.387 3.536,-2.586 10.567,-3.702 12.743,-4.02 0,0 0.423,-8.062 1.525,-10.842 0.328,-1.107 1.836,-0.222 2.219,0.479 0.833,1.408 0.996,1.981 1.254,4.027 l 0.241,5.763 c 6.646,-0.05 12.335,0.574 16.355,3.388 3.009,1.788 3.341,4.039 2.929,5.574 -0.434,1.392 -2.547,3.244 -4.521,3.244 0.112,0.107 -2.946,-0.13 -2.479,-1.043 0.826,-0.492 1.306,-0.312 2.457,-1.465 0.567,-0.505 0.186,-1.852 -0.709,-2.17 -1.788,-0.956 -7.68,-2.417 -13.971,-2.479 V 85.1 c 3.774,1.63 11.694,1.299 17.57,-0.017 19.661,-6.6 7.914,-23.629 -2.638,-29.789 -10.963,-6.913 -26.209,-12.985 -41.833,-9.786 -0.962,0.195 -0.639,0.897 -0.146,0.771 0.975,0.191 2.698,0.191 2.461,1.399 -0.595,0.795 -4.015,0.214 -4.552,0 -1.068,-0.736 -0.814,-1.642 -0.407,-2.305 1.404,-3.388 6.26,-4.219 9.713,-4.442 16.605,-1.098 31.319,4.99 43.451,14.72 4.413,3.682 11.861,12.318 10.175,20.962 -0.816,4.141 -3.831,7.975 -7.616,10.222 z"
   id="path296"
   inkscape:connector-curvature="0"
   style="fill:#141006;fill-rule:evenodd" />
	<path
   clip-rule="evenodd"
   d="m 306.943,86.325 c -0.664,-6.493 -0.557,-12.768 0.595,-18.901 0.449,-1.597 1.151,-2.047 2.063,-1.344 0.878,0.771 1.434,2.593 1.546,4.222 0.311,4.223 0.502,13.876 0.376,15.489 0.04,2.944 -4.571,2.007 -4.58,0.534"
   id="path298"
   inkscape:connector-curvature="0"
   style="fill:#141006;fill-rule:evenodd" />
	<path
   clip-rule="evenodd"
   d="m 304.733,56.352 c -0.771,-0.88 -0.572,-2.101 0.314,-3.18 0.962,-1.473 3.699,-3.458 6.465,-3.165 0,0 -4.004,2.332 -6.779,6.345 m 10.029,1.197 c -1.597,0.509 -3.885,1.22 -6.388,0.56 2.655,-3.632 5.972,-7.174 9.992,-7.332 2.338,-0.034 1.917,1.962 1.455,2.936 -0.966,1.834 -3.265,3.119 -5.059,3.836 z m -3.536,4.41 c -1.828,0.149 -3.266,0.186 -5.161,-0.478 -0.381,0.349 -0.381,1.788 -1.473,1.788 -0.771,0.203 -2.042,-0.956 -1.608,-3.786 -1.383,-1.167 -2.276,-3.823 -1.191,-6.123 0.83,-2.555 5.234,-7.055 11.203,-7.598 3.171,-0.354 4.701,0.219 5.273,2.204 0.261,-0.034 4.253,0.158 4.669,2.558 1.213,5.813 -7.315,10.89 -11.712,11.435 z"
   id="path300"
   inkscape:connector-curvature="0"
   style="fill:#141006;fill-rule:evenodd" />
	<path
   clip-rule="evenodd"
   d="m 388.019,87.554 c -1.727,0.633 -4.137,1.021 -6.233,0.967 -3.927,10.797 -4.657,17.437 -4.657,17.437 -0.32,2.429 -3.806,-0.821 -4.441,-2.097 -1.181,-1.737 0.029,-5.319 0.612,-7.826 0.951,-4.116 2.199,-8.125 3.677,-12.063 -2.4,-4.088 -0.453,-9.46 1.846,-13.086 1.277,-2.243 2.935,-4.085 3.378,-4.467 2.935,-2.561 2.087,-0.402 1.704,1.645 -1.151,3.64 -6.117,8.664 -4.126,12.015 3.333,-4.532 6.926,-9.243 11.632,-12.091 4.419,-2.561 8.427,6.446 4.076,13.072 -0.733,1.589 -4.286,5.598 -7.468,6.494 m -3.065,-4.551 c 1.023,-2.71 6.265,-10.46 8.244,-11.098 1.147,-0.702 1.534,2.749 0.854,4.503 -0.561,1.946 -2.928,5.746 -9.098,6.595 z"
   id="path302"
   inkscape:connector-curvature="0"
   style="fill:#141006;fill-rule:evenodd" />
	<path
   clip-rule="evenodd"
   d="m 174.515,107.302 c 0,-1.225 0.63,-2.581 4.138,-2.581 v -0.804 h -12.595 v 0.804 c 3.51,0 4.146,1.355 4.146,2.581 v 21.213 c 0,1.226 -0.636,2.577 -4.146,2.577 v 0.808 h 12.595 v -0.808 c -3.508,0 -4.138,-1.352 -4.138,-2.577 v -21.213"
   id="path304"
   inkscape:connector-curvature="0"
   style="fill:#141006;fill-rule:evenodd" />
	<path
   clip-rule="evenodd"
   d="m 182.416,128.515 c 0,1.861 -0.639,2.625 -2.66,2.792 v 0.593 h 8.913 v -0.593 c -2.028,-0.167 -2.662,-0.931 -2.662,-2.792 v -11.239 c 1.014,-1.479 3.13,-2.494 4.904,-2.494 2.787,0 2.955,2.786 2.915,4.945 v 8.788 c 0,1.861 -0.637,2.625 -2.662,2.792 v 0.593 h 8.915 v -0.593 c -2.029,-0.167 -2.662,-0.931 -2.662,-2.792 V 117.36 c 0.971,-1.563 2.579,-2.578 4.521,-2.578 2.665,0 3.339,1.097 3.299,5.156 v 8.577 c 0,1.861 -0.634,2.625 -2.662,2.792 v 0.593 h 8.916 v -0.593 c -2.03,-0.167 -2.663,-0.931 -2.663,-2.792 v -7.905 c 0,-3.798 -0.294,-8.067 -5.324,-8.067 -2.411,0 -5.029,1.815 -6.592,3.592 -0.466,-2.03 -2.156,-3.592 -4.312,-3.592 -1.899,0 -3.638,0.927 -5.116,2.029 -0.63,0.461 -1.477,1.771 -1.477,0.759 v -2.788 l -6.251,2.198 v 0.714 c 2.151,0 2.785,0.466 2.66,2.834 v 10.226"
   id="path306"
   inkscape:connector-curvature="0"
   style="fill:#141006;fill-rule:evenodd" />
	<path
   clip-rule="evenodd"
   d="m 222.461,127.966 c -0.424,0.931 -2.876,1.858 -3.722,1.858 -2.03,0 -2.957,-1.602 -2.957,-3.463 0,-3.804 4.012,-4.521 6.679,-5.623 v 7.228 m 3.594,-8.239 c 0,-5.198 -1.398,-7.185 -6.048,-7.185 -2.661,0 -5.323,0.674 -6.722,3.171 -0.886,1.602 -0.506,3.294 1.439,3.294 0.974,0 1.859,-0.888 1.859,-1.861 0,-1.097 -0.212,-1.945 0.041,-2.452 0.424,-0.804 1.902,-1.18 2.746,-1.18 2.666,0 3.09,1.644 3.09,6.083 -3.596,1.479 -10.401,3.213 -10.401,8.288 0,2.445 1.946,4.436 4.439,4.436 1.86,0 4.224,-1.481 6.171,-3.216 0.042,1.61 0.844,3.216 3.044,3.216 1.184,0 2.828,-1.481 3.464,-2.243 v -1.097 c -0.973,0.678 -1.732,0.973 -2.241,0.973 -0.589,0 -0.882,-0.506 -0.882,-1.31 v -8.917 z"
   id="path308"
   inkscape:connector-curvature="0"
   style="fill:#141006;fill-rule:evenodd" />
	<path
   clip-rule="evenodd"
   d="m 247.986,113.936 c -5.489,0.717 -5.914,-1.394 -9.548,-1.394 -4.019,0 -7.398,2.659 -7.398,6.847 0,2.744 1.481,4.56 3.933,5.662 -1.691,1.181 -3.761,2.915 -3.761,4.607 0,1.181 1.31,1.813 2.239,2.195 -2.2,1.988 -4.184,3.171 -4.184,4.863 0,1.687 2.406,4.349 7.313,4.349 3.926,0 11.027,-2.322 11.027,-7.099 0,-4.947 -4.438,-4.481 -10.059,-4.733 -0.886,-0.042 -3.211,-0.042 -3.761,-0.934 -0.295,-0.928 1.563,-2.699 2.409,-2.87 0.845,0.087 1.563,0.21 2.283,0.21 3.68,0 6.804,-2.364 6.804,-6.423 0,-0.97 -0.214,-2.364 -0.804,-3.635 h 3.506 v -1.645 m -13.438,3.8 c 0,-2.111 0.804,-4.014 3.299,-4.014 2.873,0 4.183,4.352 4.183,6.68 0,2.068 -0.715,4.185 -3.126,4.185 -3.425,0 -4.356,-4.185 -4.356,-6.851 z m -0.21,14.247 c 1.986,0.421 4.521,0.461 6.382,0.506 2.789,0.042 5.703,0.084 5.703,2.237 0,2.413 -3.167,3.976 -8.153,3.976 -4.394,0 -6.003,-1.481 -6.003,-3.002 0,-1.352 1.227,-2.749 2.071,-3.717 z"
   id="path310"
   inkscape:connector-curvature="0"
   style="fill:#141006;fill-rule:evenodd" />
	<path
   clip-rule="evenodd"
   d="m 252.151,128.515 c 0,1.861 -0.634,2.625 -3.212,2.792 v 0.593 h 10.017 v -0.593 c -2.579,-0.167 -3.211,-0.931 -3.211,-2.792 v -15.972 l -6.806,2.24 v 0.59 c 2.703,-0.678 3.212,-0.424 3.212,2.916 v 10.226 m 1.482,-21.128 c 1.181,0 2.153,-0.973 2.153,-2.153 0,-1.187 -0.973,-2.159 -2.153,-2.159 -1.185,0 -2.158,0.973 -2.158,2.159 0,1.18 0.974,2.153 2.158,2.153 z"
   id="path312"
   inkscape:connector-curvature="0"
   style="fill:#141006;fill-rule:evenodd" />
	<path
   clip-rule="evenodd"
   d="m 263.121,128.515 c 0,1.861 -0.636,2.625 -2.664,2.792 v 0.593 h 8.918 v -0.593 c -2.028,-0.167 -2.66,-0.931 -2.66,-2.792 v -11.284 c 1.053,-1.096 2.576,-2.449 4.604,-2.449 3.004,0 3.25,2.196 3.218,4.65 v 9.083 c 0,1.861 -0.642,2.625 -2.665,2.792 v 0.593 h 8.915 v -0.593 c -2.027,-0.167 -2.664,-0.931 -2.664,-2.792 v -9.169 c 0,-4.521 -1.646,-6.803 -4.947,-6.803 -3.004,0 -4.943,1.731 -6.461,3.378 v -3.378 l -6.258,1.987 v 0.591 c 2.279,-0.127 2.664,-0.172 2.664,3.043 v 10.351"
   id="path314"
   inkscape:connector-curvature="0"
   style="fill:#141006;fill-rule:evenodd" />
	<path
   clip-rule="evenodd"
   d="m 284.537,118.878 c 0.377,-2.663 1.687,-4.858 4.651,-4.858 2.787,0 3.923,2.406 4.053,4.858 h -8.704 m 13.015,1.355 c -0.128,-4.395 -2.873,-7.691 -7.438,-7.691 -5.24,0 -8.624,4.312 -8.624,10.31 0,5.033 3.171,9.468 8.034,9.468 4.224,0 7.518,-3.3 8.827,-7.101 l -0.669,-0.253 c -1.316,2.328 -3.638,4.52 -6.428,4.52 -4.777,0 -6.808,-5.239 -6.846,-9.253 h 13.144 z"
   id="path316"
   inkscape:connector-curvature="0"
   style="fill:#141006;fill-rule:evenodd" />
	<path
   clip-rule="evenodd"
   d="m 303.074,118.878 c 0.382,-2.663 1.691,-4.858 4.648,-4.858 2.79,0 3.932,2.406 4.061,4.858 h -8.709 m 13.02,1.355 c -0.128,-4.395 -2.878,-7.691 -7.438,-7.691 -5.24,0 -8.625,4.312 -8.625,10.31 0,5.033 3.171,9.468 8.031,9.468 4.228,0 7.521,-3.3 8.831,-7.101 l -0.676,-0.253 c -1.311,2.328 -3.638,4.52 -6.425,4.52 -4.773,0 -6.805,-5.239 -6.842,-9.253 h 13.144 z"
   id="path318"
   inkscape:connector-curvature="0"
   style="fill:#141006;fill-rule:evenodd" />
	<path
   clip-rule="evenodd"
   d="m 320.698,128.515 c 0,1.861 -0.641,2.625 -3.171,2.792 v 0.593 h 9.932 v -0.593 c -2.537,-0.167 -3.167,-0.931 -3.167,-2.792 v -10.058 c 0,-1.226 1.771,-3.298 2.613,-3.298 1.058,0 1.356,1.482 2.834,1.482 0.891,0 1.609,-0.425 1.733,-1.31 0.258,-1.816 -0.72,-2.788 -2.367,-2.788 -2.113,0 -3.971,2.367 -4.813,3.8 v -3.8 l -6.765,2.24 v 0.672 c 2.53,-0.714 3.171,-0.208 3.171,3.845 v 9.215"
   id="path320"
   inkscape:connector-curvature="0"
   style="fill:#141006;fill-rule:evenodd" />
	<path
   clip-rule="evenodd"
   d="m 335.856,128.515 c 0,1.861 -0.63,2.625 -3.21,2.792 v 0.593 h 10.019 v -0.593 c -2.581,-0.167 -3.215,-0.931 -3.215,-2.792 v -15.972 l -6.804,2.24 v 0.59 c 2.71,-0.678 3.21,-0.424 3.21,2.916 v 10.226 m 1.479,-21.128 c 1.187,0 2.158,-0.973 2.158,-2.153 0,-1.187 -0.972,-2.159 -2.158,-2.159 -1.18,0 -2.153,0.973 -2.153,2.159 0,1.18 0.974,2.153 2.153,2.153 z"
   id="path322"
   inkscape:connector-curvature="0"
   style="fill:#141006;fill-rule:evenodd" />
	<path
   clip-rule="evenodd"
   d="m 347.231,128.515 c 0,1.861 -0.637,2.625 -2.666,2.792 v 0.593 h 8.917 v -0.593 c -2.03,-0.167 -2.664,-0.931 -2.664,-2.792 v -11.284 c 1.057,-1.096 2.58,-2.449 4.604,-2.449 3.001,0 3.255,2.196 3.214,4.65 v 9.083 c 0,1.861 -0.634,2.625 -2.664,2.792 v 0.593 h 8.918 v -0.593 c -2.03,-0.167 -2.66,-0.931 -2.66,-2.792 v -9.169 c 0,-4.521 -1.646,-6.803 -4.941,-6.803 -3.003,0 -4.947,1.731 -6.471,3.378 v -3.378 l -6.253,1.987 v 0.591 c 2.282,-0.127 2.666,-0.172 2.666,3.043 v 10.351"
   id="path324"
   inkscape:connector-curvature="0"
   style="fill:#141006;fill-rule:evenodd" />
	<path
   clip-rule="evenodd"
   d="m 383.393,113.936 c -5.494,0.717 -5.921,-1.394 -9.553,-1.394 -4.014,0 -7.4,2.659 -7.4,6.847 0,2.744 1.479,4.56 3.931,5.662 -1.688,1.181 -3.761,2.915 -3.761,4.607 0,1.181 1.31,1.813 2.243,2.195 -2.199,1.988 -4.188,3.171 -4.188,4.863 0,1.687 2.411,4.349 7.315,4.349 3.928,0 11.028,-2.322 11.028,-7.099 0,-4.947 -4.441,-4.481 -10.058,-4.733 -0.888,-0.042 -3.211,-0.042 -3.762,-0.934 -0.297,-0.928 1.563,-2.699 2.407,-2.87 0.848,0.087 1.563,0.21 2.283,0.21 3.676,0 6.808,-2.364 6.808,-6.423 0,-0.97 -0.213,-2.364 -0.803,-3.635 h 3.508 v -1.645 m -13.441,3.8 c 0,-2.111 0.804,-4.014 3.299,-4.014 2.873,0 4.184,4.352 4.184,6.68 0,2.068 -0.72,4.185 -3.124,4.185 -3.426,0 -4.359,-4.185 -4.359,-6.851 z m -0.209,14.247 c 1.986,0.421 4.521,0.461 6.381,0.506 2.79,0.042 5.701,0.084 5.701,2.237 0,2.413 -3.164,3.976 -8.151,3.976 -4.397,0 -6.005,-1.481 -6.005,-3.002 0,-1.352 1.226,-2.749 2.074,-3.717 z"
   id="path326"
   inkscape:connector-curvature="0"
   style="fill:#141006;fill-rule:evenodd" />
	<path
   d="m 30.478,155.082 c 2.581,-0.903 9.255,-2.707 15.951,-1.897 -4.25,-1.597 -12.111,-0.641 -16.212,0.764 -6.636,2.272 -11.874,8.119 -16.771,7.736 4.371,1.692 8.301,-3.547 17.032,-6.603 z"
   id="path328"
   inkscape:connector-curvature="0"
   style="fill:#141006" />
	<path
   d="m 36.924,160.988 c 2.708,0.314 4.087,1.186 6.458,1.249 -4.22,-2.229 -8.917,-2.595 -12.926,-0.681 1.821,-0.568 4.537,-0.787 6.468,-0.568 z"
   id="path330"
   inkscape:connector-curvature="0"
   style="fill:#141006" />
	<path
   d="m 84.358,163.937 c 3.877,-3.017 8.144,-5.127 13.075,-5.552 -5.271,-1.13 -9.856,1.569 -13.075,5.552 z"
   id="path332"
   inkscape:connector-curvature="0"
   style="fill:#141006" />
</g>
</svg>